<svg id="Layer_1" data-name="Layer 1" xmlns="http://www.w3.org/2000/svg" xmlns:xlink="http://www.w3.org/1999/xlink" viewBox="0 0 30 30"><defs><style>.cls-1,.cls-5{fill:none;}.cls-2{clip-path:url(#clip-path);}.cls-3{opacity:0.8;}.cls-4{clip-path:url(#clip-path-2);}.cls-5{stroke:#000;stroke-linecap:round;stroke-linejoin:round;stroke-width:0.82px;}</style><clipPath id="clip-path"><rect class="cls-1" x="2.13" y="2.44" width="24.75" height="24.75"/></clipPath><clipPath id="clip-path-2"><rect class="cls-1" x="-4.88" y="-2.92" width="38.77" height="30.52"/></clipPath></defs><title>Untitled-2</title><g class="cls-2"><g class="cls-3"><g class="cls-4"><rect x="23.58" y="7.39" width="0.82" height="0.82"/><path d="M24.81,9.71V26.37H23.16V9.71h0l.33.09.08,0a2,2,0,0,0,.76,0l.08,0,.33-.09h0m-6.19,1.8h1.65V26.37H18.63Zm-4.54,4.12h1.65V26.37H14.09ZM9.55,19.77H11.2v6.6H9.55ZM5,23.89H6.67v2.47H5ZM21.93,6.16c0-1.59.93-2.89,2.06-2.89s2.06,1.3,2.06,2.89A3.22,3.22,0,0,1,25,8.67l0,0a1.54,1.54,0,0,1-2,0l0,0a3.21,3.21,0,0,1-1.05-2.51m4.95,0c0-2-1.3-3.71-2.89-3.71S21.1,4.11,21.1,6.16a4.1,4.1,0,0,0,1.24,3V26.37H21.1V11.11a.41.41,0,0,0-.41-.41H18.22a.41.41,0,0,0-.41.41V26.37H16.57V15.23a.41.41,0,0,0-.41-.41H13.68a.41.41,0,0,0-.41.41V26.37H12v-7a.41.41,0,0,0-.41-.41H9.14a.41.41,0,0,0-.41.41v7H7.49V23.48a.41.41,0,0,0-.41-.41H4.61a.41.41,0,0,0-.41.41v2.89H3V2.44H2.13V26.78a.41.41,0,0,0,.41.41H26.88v-.82H25.64V9.2a4.1,4.1,0,0,0,1.24-3"/><path d="M24,4.92a.41.41,0,0,1,.39.27l-.68.68a.41.41,0,0,0-.12.29v.41h.83V6.33l.7-.7a.41.41,0,0,0,.12-.29,1.24,1.24,0,0,0-2.47,0h.82A.41.41,0,0,1,24,4.92"/><path d="M9.55,9H4.6V3.27H9.55ZM10,2.44H4.19a.41.41,0,0,0-.41.41v6.6a.41.41,0,0,0,.41.41H10a.41.41,0,0,0,.41-.41V2.86A.41.41,0,0,0,10,2.44"/><rect x="5.43" y="4.09" width="3.3" height="0.82"/><rect x="5.43" y="5.74" width="3.3" height="0.82"/><rect x="5.43" y="7.39" width="3.3" height="0.82"/><path d="M14.09,8.22V6.16a.41.41,0,0,0-.41-.41H10.79v.82h2.47V8.22Z"/><rect x="6.67" y="10.69" width="0.82" height="2.89"/><polyline class="cls-5" points="16.16 7.39 17.96 7.42 17.93 9.22 17.96 7.42 5.79 19.2"/></g></g></g></svg>