<svg id="Layer_1" data-name="Layer 1" xmlns="http://www.w3.org/2000/svg" xmlns:xlink="http://www.w3.org/1999/xlink" viewBox="0 0 30 30"><defs><style>.cls-1{fill:none;}.cls-2{opacity:0.8;}.cls-3{clip-path:url(#clip-path);}</style><clipPath id="clip-path"><rect class="cls-1" x="-5.91" y="-5.07" width="41.82" height="33.75"/></clipPath></defs><title>Untitled-2</title><g class="cls-2"><g class="cls-3"><path d="M15,19.93c-3.78,0-5.85-1.05-5.85-1.6V15.56A12.47,12.47,0,0,0,15,16.74a12.47,12.47,0,0,0,5.85-1.18v2.77c0,.54-2.06,1.6-5.85,1.6m0-7.44c3.78,0,5.85,1.05,5.85,1.6s-2.06,1.6-5.85,1.6-5.85-1.05-5.85-1.6,2.07-1.6,5.85-1.6m6.91,5.85V14.08c0-1.75-3.48-2.66-6.91-2.66s-6.91.91-6.91,2.66v4.25C8.09,20.08,11.57,21,15,21s6.91-.91,6.91-2.66"/><path d="M15,2.91a1.6,1.6,0,1,1-1.6,1.6A1.6,1.6,0,0,1,15,2.91m-.53,4.2V8.76a.53.53,0,1,0,1.06,0V7.11a2.66,2.66,0,1,0-1.06,0"/><path d="M7.33,25.91a1.6,1.6,0,0,1-1.54,1.18,1.6,1.6,0,1,1,1.38-2.39h0a1.59,1.59,0,0,1,.16,1.21m1.88-3-1.43.83a2.65,2.65,0,1,0,.58,2.45,2.64,2.64,0,0,0,0-1.53l1.43-.82a.53.53,0,0,0-.53-.92"/><path d="M25.59,26.29a1.6,1.6,0,0,1-2.92-.38,1.58,1.58,0,0,1,.16-1.21h0a1.59,1.59,0,0,1,2.76,1.6m-.05-3.1a2.65,2.65,0,0,0-3.31.54l-1.43-.83a.53.53,0,0,0-.53.92l1.43.82a2.66,2.66,0,0,0,2.52,3.5,2.66,2.66,0,0,0,1.33-5"/></g></g></svg>